# Blender v3.1.2 OBJ File: ''
# www.blender.org
mtllib stars.mtl
o Star.001
v -5.614180 2.563588 -2.035518
v -5.614180 3.162426 -2.035518
v -5.844288 2.193486 -1.370212
v -5.384071 2.193486 -2.700826
v -5.428018 2.977376 -2.573762
v -5.241857 3.532528 -3.112008
v -5.499125 3.646896 -2.368171
v -5.614180 4.360103 -2.035518
v -5.729234 3.646896 -1.702865
v -5.986503 3.532528 -0.959029
v -5.800341 2.977375 -1.497275
v -6.180123 2.563588 -2.231261
v -6.410232 2.193486 -1.565954
v -5.950015 2.193486 -2.896568
v -5.993962 2.977376 -2.769505
v -5.807800 3.532528 -3.307750
v -6.065069 3.646896 -2.563914
v -6.180123 4.360103 -2.231260
v -6.295177 3.646896 -1.898607
v -6.552446 3.532528 -1.154771
v -6.366285 2.977375 -1.693016
v -6.180123 3.162426 -2.231261
v 4.727256 -0.133706 2.423174
v 4.661400 -0.020034 2.493452
v 4.631697 -0.306916 2.418584
v 4.904216 -0.101002 2.340896
v 4.791987 0.028133 2.440309
v 4.841171 0.216807 2.474034
v 4.676251 0.123406 2.530885
v 4.529689 0.207308 2.634007
v 4.539992 0.020449 2.569730
v 4.400228 -0.116370 2.599737
v 4.571515 -0.138455 2.503160
v 4.660733 -0.093637 2.296027
v 4.565175 -0.266847 2.291438
v 4.837693 -0.060933 2.213749
v 4.725464 0.068202 2.313162
v 4.774649 0.256876 2.346888
v 4.609729 0.163475 2.403738
v 4.463167 0.247377 2.506860
v 4.473470 0.060518 2.442583
v 4.333705 -0.076301 2.472590
v 4.504992 -0.098386 2.376014
v 4.594878 0.020034 2.366305
v 2.268817 -0.878002 3.989788
v 2.141126 -0.802530 4.231916
v 2.469338 -1.197395 3.989291
v 2.226130 -0.651897 3.690999
v 2.082205 -0.605194 4.036433
v 1.865449 -0.314570 4.140237
v 1.977020 -0.605098 4.353230
v 1.885744 -0.651587 4.716173
v 2.098624 -0.877847 4.502376
v 2.258968 -1.197203 4.622883
v 2.278964 -1.046511 4.277757
v 2.037253 -1.023263 3.912947
v 2.237774 -1.342655 3.912449
v 1.994567 -0.797158 3.614157
v 1.850641 -0.750455 3.959591
v 1.633885 -0.459831 4.063395
v 1.745456 -0.750359 4.276388
v 1.654180 -0.796848 4.639331
v 1.867060 -1.023108 4.425534
v 2.027404 -1.342464 4.546042
v 2.047400 -1.191771 4.200915
v 1.909562 -0.947791 4.155075
v 0.700047 3.177649 -3.237657
v 1.070076 2.643130 -3.324368
v 1.005257 3.935360 -3.540117
v -0.062542 3.080643 -2.828012
v 0.523797 2.462565 -3.009521
v 0.434899 1.621297 -2.801856
v 1.102485 1.997013 -3.216495
v 1.810132 1.574087 -3.497794
v 1.636384 2.424371 -3.572546
v 2.162632 3.004257 -3.954065
v 1.387664 3.154046 -3.585625
v 0.405142 3.066817 -3.812896
v 0.710352 3.824527 -4.115356
v -0.357447 2.969810 -3.403251
v 0.228892 2.351732 -3.584759
v 0.139994 1.510464 -3.377095
v 0.807580 1.886180 -3.791734
v 1.515227 1.463254 -4.073032
v 1.341479 2.313538 -4.147786
v 1.867728 2.893424 -4.529304
v 1.092759 3.043212 -4.160864
v 0.775171 2.532296 -3.899607
v -1.619297 0.393910 2.393481
v -1.641388 0.654007 2.505232
v -1.656763 0.099289 2.625894
v -1.554526 0.367032 2.022937
v -1.593206 0.681937 2.226798
v -1.572329 1.031365 2.086495
v -1.633700 0.931367 2.444901
v -1.685569 1.174203 2.728733
v -1.684819 0.797495 2.746379
v -1.737752 0.598148 3.062100
v -1.675917 0.465328 2.714600
v -1.899026 0.391072 2.344790
v -1.936492 0.096451 2.577203
v -1.834255 0.364194 1.974246
v -1.872935 0.679099 2.178107
v -1.852058 1.028527 2.037804
v -1.913429 0.928529 2.396210
v -1.965298 1.171365 2.680042
v -1.964548 0.794657 2.697688
v -2.017481 0.595309 3.013409
v -1.955646 0.462491 2.665909
v -1.921117 0.651169 2.456541
vt 0.750000 0.562500
vt 0.750000 0.562500
vt 0.750000 0.562500
vt 0.750000 0.562500
vt 0.750000 0.562500
vt 0.750000 0.562500
vt 0.750000 0.562500
vt 0.750000 0.562500
vt 0.750000 0.562500
vt 0.750000 0.562500
vt 0.750000 0.562500
vt 0.750000 0.562500
vt 0.750000 0.562500
vt 0.750000 0.562500
vt 0.750000 0.562500
vt 0.750000 0.562500
vt 0.750000 0.562500
vt 0.750000 0.562500
vt 0.750000 0.562500
vt 0.750000 0.562500
vt 0.750000 0.562500
vt 0.750000 0.562500
vt 0.750000 0.562500
vt 0.750000 0.562500
vt 0.750000 0.562500
vt 0.750000 0.562500
vt 0.750000 0.562500
vt 0.750000 0.562500
vt 0.750000 0.562500
vt 0.750000 0.562500
vt 0.750000 0.562500
vt 0.750000 0.562500
vt 0.750000 0.562500
vt 0.750000 0.562500
vt 0.750000 0.562500
vt 0.750000 0.562500
vt 0.750000 0.562500
vt 0.750000 0.562500
vt 0.750000 0.562500
vt 0.750000 0.562500
vt 0.750000 0.562500
vt 0.750000 0.562500
vt 0.750000 0.562500
vt 0.750000 0.562500
vt 0.750000 0.562500
vt 0.750000 0.562500
vt 0.750000 0.562500
vt 0.750000 0.562500
vt 0.750000 0.562500
vt 0.750000 0.562500
vt 0.750000 0.562500
vt 0.750000 0.562500
vt 0.750000 0.562500
vt 0.750000 0.562500
vt 0.750000 0.562500
vt 0.750000 0.562500
vt 0.750000 0.562500
vt 0.750000 0.562500
vt 0.750000 0.562500
vt 0.750000 0.562500
vt 0.750000 0.562500
vt 0.750000 0.562500
vt 0.750000 0.562500
vt 0.750000 0.562500
vt 0.750000 0.562500
vt 0.750000 0.562500
vt 0.750000 0.562500
vt 0.750000 0.562500
vt 0.750000 0.562500
vt 0.750000 0.562500
vt 0.750000 0.562500
vt 0.750000 0.562500
vt 0.750000 0.562500
vt 0.750000 0.562500
vt 0.750000 0.562500
vt 0.750000 0.562500
vt 0.750000 0.562500
vt 0.750000 0.562500
vt 0.750000 0.562500
vt 0.750000 0.562500
vt 0.750000 0.562500
vt 0.750000 0.562500
vt 0.750000 0.562500
vt 0.750000 0.562500
vt 0.750000 0.562500
vt 0.750000 0.562500
vt 0.750000 0.562500
vt 0.750000 0.562500
vt 0.750000 0.562500
vt 0.750000 0.562500
vt 0.750000 0.562500
vt 0.750000 0.562500
vt 0.750000 0.562500
vt 0.750000 0.562500
vt 0.750000 0.562500
vt 0.750000 0.562500
vt 0.750000 0.562500
vt 0.750000 0.562500
vt 0.750000 0.562500
vt 0.750000 0.562500
vt 0.750000 0.562500
vt 0.750000 0.562500
vt 0.750000 0.562500
vt 0.750000 0.562500
vt 0.750000 0.562500
vt 0.750000 0.562500
vt 0.750000 0.562500
vt 0.750000 0.562500
vt 0.750000 0.562500
vt 0.750000 0.562500
vn 0.9451 0.0000 0.3269
vn 0.1521 -0.8851 -0.4398
vn -0.1521 -0.8851 0.4398
vn 0.3222 0.1690 -0.9315
vn 0.2282 -0.7161 -0.6597
vn 0.0470 0.9896 -0.1359
vn 0.2931 0.4426 -0.8475
vn -0.2931 0.4426 0.8475
vn -0.0470 0.9896 0.1359
vn -0.2282 -0.7161 0.6597
vn -0.3222 0.1690 0.9315
vn -0.9451 0.0000 -0.3269
vn 0.4465 -0.2689 0.8534
vn 0.7533 -0.4018 -0.5207
vn 0.0292 -0.9489 -0.3143
vn 0.6921 0.7084 -0.1389
vn 0.8596 -0.1360 -0.4926
vn -0.3256 0.8396 0.4349
vn 0.5020 0.8648 0.0099
vn -0.8933 -0.1895 0.4076
vn -0.5493 0.6705 0.4987
vn -0.2265 -0.9567 -0.1830
vn -0.8415 -0.4504 0.2983
vn -0.4465 0.2689 -0.8534
vn 0.8155 0.5116 0.2706
vn 0.2285 0.1450 -0.9627
vn 0.5676 -0.6155 -0.5468
vn -0.4351 0.8503 -0.2962
vn 0.0677 0.3800 -0.9225
vn -0.4974 0.3805 0.7796
vn -0.5257 0.8504 -0.0233
vn 0.1277 -0.6151 0.7781
vn -0.3926 0.1455 0.9081
vn 0.5763 -0.7607 -0.2987
vn 0.2830 -0.7604 0.5845
vn -0.8155 -0.5116 -0.2706
vn 0.4496 0.1690 0.8771
vn -0.8216 0.4634 0.3319
vn -0.1771 0.9793 -0.0979
vn -0.5871 -0.6841 0.4328
vn -0.8874 0.1967 0.4170
vn 0.4587 -0.8862 -0.0644
vn -0.3713 -0.8577 0.3556
vn 0.8707 0.1364 -0.4726
vn 0.6579 -0.7268 -0.1972
vn 0.0793 0.9705 -0.2277
vn 0.7779 0.4085 -0.4775
vn -0.4496 -0.1690 -0.8771
vn 0.9851 0.0100 0.1715
vn 0.1401 -0.6242 -0.7686
vn -0.0024 -0.9974 0.0719
vn 0.1378 0.5501 -0.8236
vn 0.1626 -0.3760 -0.9122
vn -0.0550 0.9642 0.2596
vn 0.1029 0.7650 -0.6357
vn -0.1718 0.0458 0.9841
vn -0.0990 0.8488 0.5193
vn -0.0512 -0.9359 0.3486
vn -0.1641 -0.2404 0.9567
vn -0.9851 -0.0100 -0.1715
usemtl None
s off
f 1/1/1 2/2/1 3/3/1
f 2/2/1 1/1/1 4/4/1
f 2/2/1 4/4/1 5/5/1
f 2/2/1 5/5/1 6/6/1
f 2/2/1 6/6/1 7/7/1
f 2/2/1 7/7/1 8/8/1
f 2/2/1 8/8/1 9/9/1
f 2/2/1 9/9/1 10/10/1
f 2/2/1 10/10/1 11/11/1
f 2/2/1 11/11/1 3/3/1
f 12/12/2 1/1/2 3/3/2 13/13/2
f 1/1/3 12/12/3 14/14/3 4/4/3
f 4/4/4 14/14/4 15/15/4 5/5/4
f 5/5/5 15/15/5 16/16/5 6/6/5
f 6/6/6 16/16/6 17/17/6 7/7/6
f 7/7/7 17/17/7 18/18/7 8/8/7
f 8/8/8 18/18/8 19/19/8 9/9/8
f 9/9/9 19/19/9 20/20/9 10/10/9
f 10/10/10 20/20/10 21/21/10 11/11/10
f 11/11/11 21/21/11 13/13/11 3/3/11
f 22/22/12 12/12/12 13/13/12
f 12/12/12 22/22/12 14/14/12
f 14/14/12 22/22/12 15/15/12
f 15/15/12 22/22/12 16/16/12
f 16/16/12 22/22/12 17/17/12
f 17/17/12 22/22/12 18/18/12
f 18/18/12 22/22/12 19/19/12
f 19/19/12 22/22/12 20/20/12
f 20/20/12 22/22/12 21/21/12
f 21/21/12 22/22/12 13/13/12
f 23/23/13 24/24/13 25/25/13
f 24/24/13 23/23/13 26/26/13
f 24/24/13 26/26/13 27/27/13
f 24/24/13 27/27/13 28/28/13
f 24/24/13 28/28/13 29/29/13
f 24/24/13 29/29/13 30/30/13
f 24/24/13 30/30/13 31/31/13
f 24/24/13 31/31/13 32/32/13
f 24/24/13 32/32/13 33/33/13
f 24/24/13 33/33/13 25/25/13
f 34/34/14 23/23/14 25/25/14 35/35/14
f 23/23/15 34/34/15 36/36/15 26/26/15
f 26/26/16 36/36/16 37/37/16 27/27/16
f 27/27/17 37/37/17 38/38/17 28/28/17
f 28/28/18 38/38/18 39/39/18 29/29/18
f 29/29/19 39/39/19 40/40/19 30/30/19
f 30/30/20 40/40/20 41/41/20 31/31/20
f 31/31/21 41/41/21 42/42/21 32/32/21
f 32/32/22 42/42/22 43/43/22 33/33/22
f 33/33/23 43/43/23 35/35/23 25/25/23
f 44/44/24 34/34/24 35/35/24
f 34/34/24 44/44/24 36/36/24
f 36/36/24 44/44/24 37/37/24
f 37/37/24 44/44/24 38/38/24
f 38/38/24 44/44/24 39/39/24
f 39/39/24 44/44/24 40/40/24
f 40/40/24 44/44/24 41/41/24
f 41/41/24 44/44/24 42/42/24
f 42/42/24 44/44/24 43/43/24
f 43/43/24 44/44/24 35/35/24
f 45/45/25 46/46/25 47/47/25
f 46/46/25 45/45/25 48/48/25
f 46/46/25 48/48/25 49/49/25
f 46/46/25 49/49/25 50/50/25
f 46/46/25 50/50/25 51/51/25
f 46/46/25 51/51/25 52/52/25
f 46/46/25 52/52/25 53/53/25
f 46/46/25 53/53/25 54/54/25
f 46/46/25 54/54/25 55/55/25
f 46/46/25 55/55/25 47/47/25
f 56/56/26 45/45/26 47/47/26 57/57/26
f 45/45/27 56/56/27 58/58/27 48/48/27
f 48/48/28 58/58/28 59/59/28 49/49/28
f 49/49/29 59/59/29 60/60/29 50/50/29
f 50/50/30 60/60/30 61/61/30 51/51/30
f 51/51/31 61/61/31 62/62/31 52/52/31
f 52/52/32 62/62/32 63/63/32 53/53/32
f 53/53/33 63/63/33 64/64/33 54/54/33
f 54/54/34 64/64/34 65/65/34 55/55/34
f 55/55/35 65/65/35 57/57/35 47/47/35
f 66/66/36 56/56/36 57/57/36
f 56/56/36 66/66/36 58/58/36
f 58/58/36 66/66/36 59/59/36
f 59/59/36 66/66/36 60/60/36
f 60/60/36 66/66/36 61/61/36
f 61/61/36 66/66/36 62/62/36
f 62/62/36 66/66/36 63/63/36
f 63/63/36 66/66/36 64/64/36
f 64/64/36 66/66/36 65/65/36
f 65/65/36 66/66/36 57/57/36
f 67/67/37 68/68/37 69/69/37
f 68/68/37 67/67/37 70/70/37
f 68/68/37 70/70/37 71/71/37
f 68/68/37 71/71/37 72/72/37
f 68/68/37 72/72/37 73/73/37
f 68/68/37 73/73/37 74/74/37
f 68/68/37 74/74/37 75/75/37
f 68/68/37 75/75/37 76/76/37
f 68/68/37 76/76/37 77/77/37
f 68/68/37 77/77/37 69/69/37
f 78/78/38 67/67/38 69/69/38 79/79/38
f 67/67/39 78/78/39 80/80/39 70/70/39
f 70/70/40 80/80/40 81/81/40 71/71/40
f 71/71/41 81/81/41 82/82/41 72/72/41
f 72/72/42 82/82/42 83/83/42 73/73/42
f 73/73/43 83/83/43 84/84/43 74/74/43
f 74/74/44 84/84/44 85/85/44 75/75/44
f 75/75/45 85/85/45 86/86/45 76/76/45
f 76/76/46 86/86/46 87/87/46 77/77/46
f 77/77/47 87/87/47 79/79/47 69/69/47
f 88/88/48 78/78/48 79/79/48
f 78/78/48 88/88/48 80/80/48
f 80/80/48 88/88/48 81/81/48
f 81/81/48 88/88/48 82/82/48
f 82/82/48 88/88/48 83/83/48
f 83/83/48 88/88/48 84/84/48
f 84/84/48 88/88/48 85/85/48
f 85/85/48 88/88/48 86/86/48
f 86/86/48 88/88/48 87/87/48
f 87/87/48 88/88/48 79/79/48
f 89/89/49 90/90/49 91/91/49
f 90/90/49 89/89/49 92/92/49
f 90/90/49 92/92/49 93/93/49
f 90/90/49 93/93/49 94/94/49
f 90/90/49 94/94/49 95/95/49
f 90/90/49 95/95/49 96/96/49
f 90/90/49 96/96/49 97/97/49
f 90/90/49 97/97/49 98/98/49
f 90/90/49 98/98/49 99/99/49
f 90/90/49 99/99/49 91/91/49
f 100/100/50 89/89/50 91/91/50 101/101/50
f 89/89/51 100/100/51 102/102/51 92/92/51
f 92/92/52 102/102/52 103/103/52 93/93/52
f 93/93/53 103/103/53 104/104/53 94/94/53
f 94/94/54 104/104/54 105/105/54 95/95/54
f 95/95/55 105/105/55 106/106/55 96/96/55
f 96/96/56 106/106/56 107/107/56 97/97/56
f 97/97/57 107/107/57 108/108/57 98/98/57
f 98/98/58 108/108/58 109/109/58 99/99/58
f 99/99/59 109/109/59 101/101/59 91/91/59
f 110/110/60 100/100/60 101/101/60
f 100/100/60 110/110/60 102/102/60
f 102/102/60 110/110/60 103/103/60
f 103/103/60 110/110/60 104/104/60
f 104/104/60 110/110/60 105/105/60
f 105/105/60 110/110/60 106/106/60
f 106/106/60 110/110/60 107/107/60
f 107/107/60 110/110/60 108/108/60
f 108/108/60 110/110/60 109/109/60
f 109/109/60 110/110/60 101/101/60
